<svg xmlns="http://www.w3.org/2000/svg" width="1366.149" height="538.274" viewBox="0 0 1366.149 538.274">
  <g id="Group_797" data-name="Group 797" transform="translate(0.165 -2264.318)">
    <path id="Path_580" data-name="Path 580" d="M1324.66,1062.7s.154-376.28.165-376.311c80.292-7.547,173.623,30.849,246.552-87.674,53.251-86.543,239.6-112.81,332.787,5.342s173.294,117.555,237.59,95.7c73.736-25.064,106.129-100.505,221.551-84.552,133.4,18.439,115.538,130.221,213.839,110.756,40.756-8.07,79.544.356,113.666,19.43-.006.012,0,317.311,0,317.311Z" transform="translate(-1324.824 1739.891)" fill="#dde8fd"/>
    <g id="Group_719" data-name="Group 719" transform="translate(11.599 2393.075)" opacity="0.5">
      <path id="Path_506" data-name="Path 506" d="M3181.5,956.356s6.738,3.634,8.038,7.89,1.624,53.63,3.735,58.015,4.115,29.56.867,41.687c0,0,2.5,10.774,1.71,12.885s-7.213,4.71-9.524,4.547-3.49-13.589-.952-17.433Z" transform="translate(-3036.45 -888.857)" fill="#777"/>
      <path id="Path_507" data-name="Path 507" d="M3242.149,827.44c4.175-3.643,5.172-9.723,5.383-13.254-.827,6.266-6.466,11.793-6.466,11.793,6.713-7.958-4.114-37.085,12.839-44.448,11.1-4.819,19.274-1.66,23.6,1.1,9.68-1.311,21.292,12.64,21.292,12.64l-23.168,30.71s-1.655-3.821-3.969-3.646c1.26,4.866,2,8.836-.43,11.333-12.062,12.394-7.139,18.406-14.029,20.53C3248.771,856.795,3231.972,836.319,3242.149,827.44Z" transform="translate(-3161.121 -779.033)" fill="#09f"/>
      <path id="Path_508" data-name="Path 508" d="M3190.756,952.473s7.427.468,11.247,4.853,4.327,40.121,4.327,40.121a5.15,5.15,0,0,1-5.488,3.677C3196.4,1000.8,3190.756,952.473,3190.756,952.473Z" transform="translate(-3050.299 -886.452)" fill="#09f" opacity="0.5"/>
      <path id="Path_509" data-name="Path 509" d="M3287.265,1026.087c.512,1.243,2.739,2.348,5.946,3.144,7.19,1.79,19.315,2.025,28.156-1.251,9.482-3.51,16.359-53.624,19.283-79.307,1.02-8.959,1.56-14.948,1.56-14.948s-5.447-8.526-26.527-5.684-23.208,9.946-25.1,22.735S3285.61,1022.058,3287.265,1026.087Z" transform="translate(-3222.736 -870.96)" fill="#00008b"/>
      <path id="Path_510" data-name="Path 510" d="M3290.89,1038.874c7.19,1.79,19.315,2.025,28.156-1.251,9.482-3.51,16.359-53.624,19.283-79.307-2.5-8.839-4.479-14.654-4.479-14.654s-26.466-3.2-31.617,4.8C3297.625,955.606,3292.023,1024.419,3290.89,1038.874Z" transform="translate(-3220.415 -880.604)" fill="#3a49cd"/>
      <path id="Path_511" data-name="Path 511" d="M3209.584,1012.11c7.249-16.258,10.718-20.854,10.839-25.97.1-4.045-1.9-8.409-5.772-19.112a39.857,39.857,0,0,1-1.93-7.736c-3.065-20.632,8.866-42.935,16.282-44.454,2.063-.546,5.561-8,5.518-20.005l.929.183,15.614,3.091s-.355,4.914-.366,9.543c-.01,3.858.223,7.514,1.1,7.975,1.124.1,1.788.169,1.788.169s13.019,18.081,14.115,34.9-10.427,24.121.086,57.725C3278.514,1042.736,3205.58,1021.093,3209.584,1012.11Z" transform="translate(-3119.936 -850.753)" fill="#777"/>
      <path id="Path_512" data-name="Path 512" d="M3271.794,898.405s-.355,4.914-.366,9.543c-8.737-.246-13.356-8.216-15.248-12.634Z" transform="translate(-3140.667 -851.051)" fill="#777"/>
      <path id="Path_513" data-name="Path 513" d="M3236.16,838.65s-4.58-7.235-5.678-13.421c-.784-4.417,1.465-20.788,17.917-18.43a22.344,22.344,0,0,1,9.27,3.5c3.572,2.412,8.727,7.621,2.963,21.906l-1.5,4.826Z" transform="translate(-3122.26 -796.086)" fill="#09f"/>
      <path id="Path_514" data-name="Path 514" d="M3251.345,858.2s-20.672.341-20.686-12.536-2.693-21.505,10.506-22.268,15.768,4.149,16.818,8.446S3256.723,857.775,3251.345,858.2Z" transform="translate(-3117.301 -806.457)" fill="#777"/>
      <path id="Path_515" data-name="Path 515" d="M3277.325,818.434s-5.661,15.107-14.347,17.341-12.454-.093-12.454-.093a24.6,24.6,0,0,0,8.046-14.532S3273.056,811.243,3277.325,818.434Z" transform="translate(-3144.045 -801.814)" fill="#09f"/>
      <path id="Path_516" data-name="Path 516" d="M3226.713,821.906s4.228,3.373,5.258,6.652,1.494,10.029,3.461,9.8c0,0,4.264-10.268-.527-16.077C3229.823,816.122,3226.713,821.906,3226.713,821.906Z" transform="translate(-3094.836 -804.06)" fill="#09f"/>
      <path id="Path_517" data-name="Path 517" d="M3211.59,1365.931a204.275,204.275,0,0,0,13.031,36.551l6.817-.473a192.775,192.775,0,0,1-3.151-37.392c.136-15.023,1.994-32.777,7.929-49.73,20.4-58.256,17.1-100.654,17.1-100.654l-38.359,4.487-1.787.209c-.159,17.616-.615,41.535-1.012,60.238-.352,16.82-.661,29.421-.661,29.421C3204.123,1324.47,3206.8,1346.89,3211.59,1365.931Z" transform="translate(-3103.637 -1048.57)" fill="#00008b"/>
      <path id="Path_518" data-name="Path 518" d="M3247.561,1071.905c3.874,10.7,5.869,15.066,5.772,19.112,12.349-19.12,34.656-22.005,34.656-22.005l-42.358-4.842A39.845,39.845,0,0,0,3247.561,1071.905Z" transform="translate(-3152.846 -955.63)" fill="#de8181"/>
      <path id="Path_519" data-name="Path 519" d="M3311.394,1061.3l6.207,1.861s20.472-33.968,22.333-42.807c.608-2.877,2.1-8.635,3.833-15.087,3.6-13.361,8.235-29.709,8.235-29.709l1.527-6.618,5.211-22.569s-9.979,1.019-15.814,3.46c-1.933.806-3.407,1.769-3.921,2.9-4.289,9.429-8.569,33.222-11.578,50.2-1.677,9.46-2.956,16.8-3.624,18.359C3321.941,1025.623,3316.254,1049.51,3311.394,1061.3Z" transform="translate(-3248.631 -882.671)" fill="#777"/>
      <path id="Path_520" data-name="Path 520" d="M3256.6,1349.484c2.206,23.539,11.917,38.76,11.917,38.76l3.257,2.368s3.082-16.583,5.263-36.314c2.078-18.754,4.928-38.6,8.15-44.654,12.791-24.021,16.642-114.7,16.642-114.7l-38.892-1.929c-3.912,6.576-5.616,17.361-6.021,29.624-1.023,30.949,6.252,71.3,7.339,77.14a.024.024,0,0,0,0,.014,2.03,2.03,0,0,1-.256,1.3C3256.266,1316.411,3255.146,1333.935,3256.6,1349.484Z" transform="translate(-3170.653 -1035.427)" fill="#00008b"/>
      <path id="Path_521" data-name="Path 521" d="M3267.139,820.563s-4.032,15.82-14.992,20.887c0,0,10.96-9.72,11.89-20.164S3267.139,820.563,3267.139,820.563Z" transform="translate(-3134.477 -802.206)" fill="#09f"/>
      <path id="Path_522" data-name="Path 522" d="M3198.686,1056.713a9.222,9.222,0,0,0,.242,3.109c.828,2.6,3.669,3.79,10.54,3.08,4.2-.437,6.071-7.475,6.906-13.478q3.784,12.885,10.618,14.423c6.66,1.481,40.26,5.566,42.458-10.405,2.419-17.566-4.825-48.671-5.223-65.442a82.967,82.967,0,0,0,1.219-15.542c-.281-11.947-3.786-18.643-6.484-21.339-.762-.586-1.526-.952-4.593-1.478-1.566-.266-3.737-.576-6.813-.98a11.563,11.563,0,0,0-1.227-.1c.568,1.016,8.178,12.539,7.585,15.5-.622,3.1-27.61.309-29.471-1.4s-4.806-14.771-4.806-14.771-10.454.26-15.128,3.66c0,0-1.348,1.7-1.589,2.16-4.988,9.5-8.661,33.437-12.165,50.532a24.9,24.9,0,0,0,18.21,2.668C3205.958,1026.606,3199.135,1047.743,3198.686,1056.713Z" transform="translate(-3113.913 -883.619)" fill="#09f" opacity="0.5"/>
      <path id="Path_523" data-name="Path 523" d="M3202.521,949.9s.014.025.042.071c.917,1.45,15.254,24.366,16.628,39.268a82.969,82.969,0,0,0,1.219-15.542c-1.844-5.63-6.32-18.138-11.076-22.817C3208.737,950.287,3202.521,949.9,3202.521,949.9Z" transform="translate(-3068.876 -884.856)" fill="#3a49cd"/>
      <path id="Path_524" data-name="Path 524" d="M3321.184,1604.069c2.206,23.539,11.917,38.76,11.917,38.76l3.315,3.019s3.023-17.235,5.2-36.965C3339.322,1609.05,3329.19,1609.419,3321.184,1604.069Z" transform="translate(-3235.237 -1290.012)" fill="#777"/>
      <path id="Path_525" data-name="Path 525" d="M3264.918,1610.61a204.252,204.252,0,0,0,13.031,36.55l6.817-.472a192.7,192.7,0,0,1-3.151-37.393C3279.3,1610.46,3274.528,1611.644,3264.918,1610.61Z" transform="translate(-3156.965 -1293.249)" fill="#777"/>
      <g id="Group_705" data-name="Group 705" transform="translate(113.519 343.851)">
        <path id="Path_526" data-name="Path 526" d="M3216.21,1698.117h4.352c1.458-.229,2.534-.651,4.03-.847a4.032,4.032,0,0,1,3.523.847.467.467,0,0,1,.041.043h18.488c.465-.665.019-2.2-.417-3.335a2.636,2.636,0,0,0-1.732-1.582c-1.96-.567-5.825-1.073-9.366-4.278-1.991-1.8-9.616-6.616-9.616-6.616l-.041-.009c-.167,0-.965.248-4.432,3.177-1.793,1.51-4.849-2.134-4.849-2.134a4.35,4.35,0,0,0-1,1.358,4.59,4.59,0,0,0-.4,2.838c.276,1.666-.614,4.761-1.324,6.855-.431,1.268-.794,2.169-.794,2.169S3212.466,1697.649,3216.21,1698.117Z" transform="translate(-3212.672 -1682.34)" fill="#0d0d38"/>
        <path id="Path_527" data-name="Path 527" d="M3268.7,1684.741c1.04.732,3.233,2.174,4.688,2.363,1.964.257,5.637-4.755,5.637-4.755l-.041-.009c-.167,0-.965.248-4.432,3.177-1.793,1.51-4.849-2.134-4.849-2.134A4.354,4.354,0,0,0,3268.7,1684.741Z" transform="translate(-3266.184 -1682.34)" fill="#0b0754"/>
        <path id="Path_528" data-name="Path 528" d="M3216.21,1717.794h4.352c1.458-.229,2.534-.651,4.03-.847a4.035,4.035,0,0,1,3.523.847.484.484,0,0,1,.041.044h18.488c.465-.665.019-2.2-.417-3.335-.563-.5-.72,2.168-1.031,2.593s-15.081.155-15.934-.465a8.924,8.924,0,0,0-6.979-.853c-3.1.741-7.68-1.16-8.813-1.666-.431,1.269-.794,2.169-.794,2.169S3212.466,1717.326,3216.21,1717.794Z" transform="translate(-3212.672 -1702.018)" fill="#0b0754"/>
      </g>
      <g id="Group_706" data-name="Group 706" transform="translate(90.295 343.851)">
        <path id="Path_529" data-name="Path 529" d="M3277.222,1698.117h4.352c1.458-.229,2.535-.651,4.03-.847a4.037,4.037,0,0,1,3.524.847.378.378,0,0,1,.039.043h18.489c.465-.665.018-2.2-.418-3.335a2.628,2.628,0,0,0-1.731-1.582c-1.96-.567-5.826-1.073-9.365-4.278-1.992-1.8-9.616-6.616-9.616-6.616l-.041-.009c-.167,0-.964.248-4.433,3.177-1.793,1.51-4.848-2.134-4.848-2.134a4.349,4.349,0,0,0-1,1.358,4.6,4.6,0,0,0-.4,2.838c.276,1.666-.614,4.761-1.325,6.855-.431,1.268-.794,2.169-.794,2.169S3273.478,1697.649,3277.222,1698.117Z" transform="translate(-3273.684 -1682.34)" fill="#0d0d38"/>
        <path id="Path_530" data-name="Path 530" d="M3329.715,1684.741c1.039.732,3.232,2.174,4.688,2.363,1.964.257,5.636-4.755,5.636-4.755l-.04-.009c-.168,0-.965.248-4.433,3.177-1.792,1.51-4.848-2.134-4.848-2.134A4.352,4.352,0,0,0,3329.715,1684.741Z" transform="translate(-3327.198 -1682.34)" fill="#0b0754"/>
        <path id="Path_531" data-name="Path 531" d="M3277.222,1717.794h4.352c1.458-.229,2.535-.651,4.03-.847a4.04,4.04,0,0,1,3.524.847.389.389,0,0,1,.039.044h18.489c.465-.665.018-2.2-.418-3.335-.561-.5-.72,2.168-1.03,2.593s-15.082.155-15.936-.465a8.922,8.922,0,0,0-6.979-.853c-3.1.741-7.681-1.16-8.813-1.666-.431,1.269-.794,2.169-.794,2.169S3273.478,1717.326,3277.222,1717.794Z" transform="translate(-3273.684 -1702.018)" fill="#0b0754"/>
      </g>
      <path id="Path_532" data-name="Path 532" d="M3308.72,1122.621c4.615-1.542,10.538-5.641,17.649-14.831,18.828-24.334,1.6-52.931-.711-53.463s-6.657,18.5-6.657,18.5C3315.992,1092.514,3309.168,1113.651,3308.72,1122.621Z" transform="translate(-3223.947 -949.526)" fill="#00008b"/>
      <path id="Path_533" data-name="Path 533" d="M3305.708,946.369s16.54,11.735,17.96,39.089-23.209,32.918-23.209,32.918l1.6-8.644s19.952-7.223,14.742-29.011a61.568,61.568,0,0,0-20.208-33.009Z" transform="translate(-3207.984 -882.671)" fill="#3a49cd"/>
      <path id="Path_534" data-name="Path 534" d="M3310.361,1311.271l17.387,2.965s3.713,1.276,3.306,13.117c-.222,6.478-.006,15.816.236,22.948a8.4,8.4,0,0,1-9.812,8.551l-10.981-1.872a2.137,2.137,0,0,1-1.776-2.188Z" transform="translate(-3220.168 -1108.67)" fill="#00008b"/>
      <path id="Path_535" data-name="Path 535" d="M3342.164,1311.836a61.682,61.682,0,0,1,2.892-8.95,18.233,18.233,0,0,0,.754-2.456c1.023-4.234,1.129-9.475,2.1-13.54,0,0,1.07-13.369,18.451-9.282,4,.942,8.788,1.962,13.927,2.985,4.058-2.42,13.511-7.176,22.3-5.128,7.591,1.768,12.249,7.553,14.589,11.411,4.353.589,8.1,1.01,10.859,1.191,12.292.806,13.435,10.663,11.88,16.467a29.963,29.963,0,0,0-.645,4.119c-.961,9.172,2.742,20.951-2.267,26.624-1.165,1.32-69.794-11.947-89.162-15.2A6.91,6.91,0,0,1,3342.164,1311.836Zm59.719-33.35c-5.9-1.375-12.414.923-16.778,3.047,9.362,1.79,19.426,3.513,27.9,4.755C3410.693,1283.2,3407.043,1279.687,3401.884,1278.486Z" transform="translate(-3342.002 -1086.185)" fill="#09f" opacity="0.5"/>
      <path id="Path_536" data-name="Path 536" d="M3427.8,1245.572s-1.888,4.446-3.853,5.687-5.171,6.349-4.342,8.638c.427,1.177,3.841,4.764,7.754,4.391,2.47-.236,4.137-11.27,4.86-13.339s1.344-2.481,1.344-2.481Z" transform="translate(-3364.601 -1067.98)" fill="#777"/>
    </g>
    <g id="Group_718" data-name="Group 718" transform="translate(1205 2418.022)" opacity="0.5">
      <g id="Group_703" data-name="Group 703">
        <path id="Path_475" data-name="Path 475" d="M4750.026,777.123c-3.182-1.947-8.264.38-8.264.38,1.759-2.47,8.17-1.662,8.17-1.662-12.771-2.718-15.437,5.448-15.658,6.212-9.264-8.359-24.1,9.461-24.1,9.461l21.283,28.212s1.941-4.488,4.506-3.087c4,2.185,11.734-6.656,9.261-18.286a30.524,30.524,0,0,0-.945-3.46,6.891,6.891,0,0,0,2.654.657c2.328,0,5.844-5.937,6.318-7.932S4753.209,779.071,4750.026,777.123Z" transform="translate(-4665.494 -775.29)" fill="#0b0754"/>
        <path id="Path_476" data-name="Path 476" d="M4808.476,1018.064c-.47,1.142-2.516,2.157-5.463,2.889-6.6,1.645-17.744,1.86-25.866-1.149-8.71-3.224-15.028-49.262-17.714-72.857-.937-8.23-1.434-13.732-1.434-13.732s5-7.832,24.369-5.222,21.32,9.137,23.06,20.886S4810,1014.364,4808.476,1018.064Z" transform="translate(-4696.591 -874.247)" fill="#0b0754"/>
        <path id="Path_477" data-name="Path 477" d="M4805.677,1031.078c-6.605,1.645-17.743,1.86-25.867-1.149-8.709-3.224-15.028-49.262-17.714-72.857,2.295-8.12,4.116-13.462,4.116-13.462s24.313-2.937,29.045,4.406C4799.489,954.583,4804.635,1017.8,4805.677,1031.078Z" transform="translate(-4699.256 -884.372)" fill="#09f" opacity="0.5"/>
        <path id="Path_478" data-name="Path 478" d="M4646.821,1019.448c-14.359.438-35.03-16.1-35.03-16.1l2.829-4.35c5.221,3.479,23.716,6.743,23.716,6.743-1.3-4.184-2.288-8.054-3.026-11.625-5.019-24.264,1.663-34.746,3.607-37.184a5.951,5.951,0,0,1,.506-.577s.058.169.166.492c.238.7.711,2.1,1.338,4.031C4645.6,975.27,4658.821,1019.086,4646.821,1019.448Z" transform="translate(-4601.512 -893.038)" fill="#777"/>
        <path id="Path_479" data-name="Path 479" d="M4735.084,1002.571c-6.659-14.935-9.846-19.158-9.957-23.857-.089-3.716,1.745-7.725,5.3-17.557a36.39,36.39,0,0,0,1.772-7.107c2.814-18.953-8.145-39.443-14.957-40.838-1.895-.5-5.108-7.347-5.069-18.378l-.852.168-14.346,2.84s.327,4.515.336,8.767c.011,3.544-.2,6.9-1.007,7.326-1.033.093-1.642.155-1.642.155s-11.959,16.61-12.965,32.058,9.578,22.159-.079,53.03C4671.762,1030.706,4738.764,1010.823,4735.084,1002.571Z" transform="translate(-4646.279 -853.029)" fill="#777"/>
        <path id="Path_480" data-name="Path 480" d="M4727.386,898.154s.326,4.515.337,8.767c8.026-.227,12.27-7.548,14.007-11.607Z" transform="translate(-4676.684 -853.342)" fill="#f8f8f8"/>
        <path id="Path_481" data-name="Path 481" d="M4726.413,836.04s4.205-6.647,5.215-12.33c.722-4.057-1.344-19.1-16.459-16.931a20.525,20.525,0,0,0-8.515,3.219c-3.281,2.216-8.018,7-2.722,20.125l1.375,4.433Z" transform="translate(-4659.885 -795.63)" fill="#0d0d38"/>
        <path id="Path_482" data-name="Path 482" d="M4707.959,855.359s18.991.314,19-11.516,2.474-19.756-9.65-20.457-14.486,3.812-15.45,7.759S4703.02,854.972,4707.959,855.359Z" transform="translate(-4659.937 -806.52)" fill="#777"/>
        <path id="Path_483" data-name="Path 483" d="M4721.731,818.221s5.2,13.878,13.179,15.93,11.442-.086,11.442-.086a22.6,22.6,0,0,1-7.392-13.35S4725.652,811.615,4721.731,818.221Z" transform="translate(-4673.006 -801.644)" fill="#0b0754"/>
        <path id="Path_484" data-name="Path 484" d="M4707.534,821.706s-3.883,3.1-4.829,6.111-1.374,9.214-3.18,9c0,0-3.917-9.433.485-14.769C4704.678,816.392,4707.534,821.706,4707.534,821.706Z" transform="translate(-4657.521 -804.003)" fill="#0b0754"/>
        <path id="Path_485" data-name="Path 485" d="M4716.643,1353.592a187.661,187.661,0,0,1-11.97,33.578l-6.263-.435a177.011,177.011,0,0,0,2.895-34.351c-.124-13.8-1.83-30.111-7.284-45.685-18.739-53.518-15.71-92.467-15.71-92.467l35.239,4.123,1.642.192c.147,16.184.564,38.157.93,55.338.323,15.452.607,27.028.607,27.028C4723.5,1315.5,4721.043,1336.1,4716.643,1353.592Z" transform="translate(-4644.653 -1060.736)" fill="#00008b"/>
        <path id="Path_486" data-name="Path 486" d="M4826.094,1051.949l-5.7,1.71s-18.807-31.205-20.518-39.325c-.558-2.643-1.926-7.933-3.521-13.86-3.3-12.274-7.564-27.292-7.564-27.292l-1.4-6.079-4.787-20.733s9.167.936,14.529,3.179c1.776.741,3.13,1.625,3.6,2.663,3.938,8.662,7.871,30.52,10.634,46.113,1.542,8.69,2.717,15.436,3.33,16.865C4816.4,1019.177,4821.629,1041.12,4826.094,1051.949Z" transform="translate(-4712.587 -886.543)" fill="#777"/>
        <path id="Path_487" data-name="Path 487" d="M4768.811,1336.757c-2.027,21.624-10.948,35.607-10.948,35.607l-2.991,2.176s-2.832-15.235-4.836-33.36c-1.908-17.229-4.527-35.458-7.485-41.022-11.753-22.067-15.291-105.374-15.291-105.374l35.729-1.772c3.592,6.041,5.16,15.948,5.53,27.214.94,28.431-5.743,65.5-6.743,70.865a.038.038,0,0,1,0,.013,1.858,1.858,0,0,0,.235,1.2C4769.117,1306.374,4770.146,1322.473,4768.811,1336.757Z" transform="translate(-4676.601 -1046.935)" fill="#09f"/>
        <path id="Path_488" data-name="Path 488" d="M4723.353,820.228s3.7,14.533,13.774,19.188c0,0-10.07-8.929-10.924-18.524S4723.353,820.228,4723.353,820.228Z" transform="translate(-4674.06 -802.056)" fill="#0d0d38"/>
        <path id="Path_489" data-name="Path 489" d="M4895.976,1245.572s1.735,4.084,3.539,5.225a10.1,10.1,0,0,1,3.894,6.08c.688,4.044-2.411,6.553-4.691,6.553s-4.459-3.109-5.8-10.532c-.075-.409-2.238-4.666-2.238-4.666Z" transform="translate(-4782.875 -1081.116)" fill="#777"/>
        <path id="Path_490" data-name="Path 490" d="M4727.423,1047.862a8.488,8.488,0,0,1-.221,2.856c-.76,2.392-3.373,3.482-9.684,2.829-3.856-.4-5.576-6.867-6.344-12.382q-3.475,11.837-9.754,13.25c-6.12,1.361-36.985,5.114-39.005-9.559-2.222-16.137,4.433-44.712,4.8-60.119a76.386,76.386,0,0,1-1.119-14.277c.258-10.975,3.48-17.127,5.956-19.6.7-.539,1.4-.875,4.22-1.358,1.438-.245,3.433-.529,6.259-.9a10.594,10.594,0,0,1,1.127-.088c-.523.933-7.513,11.519-6.969,14.241.572,2.849,25.364.284,27.074-1.282s4.416-13.57,4.416-13.57,8.779.96,13.073,4.083l-.044.055a3.628,3.628,0,0,1,1.129,1.188c4.581,8.723,9.157,30.738,12.375,46.443a22.869,22.869,0,0,1-16.728,2.451C4720.744,1020.2,4727.012,1039.622,4727.423,1047.862Z" transform="translate(-4634.138 -887.538)" fill="#f8f8f8"/>
        <path id="Path_491" data-name="Path 491" d="M4595.558,1056.684c-.218-.545-2.937-8.6-5-9.683s-5.874-2.284-6.745-1.849-2.5,6.527,0,9.682,8.92,6.2,8.92,6.2Z" transform="translate(-4582.448 -950.723)" fill="#777"/>
        <path id="Path_492" data-name="Path 492" d="M4690.178,949.9s-.013.023-.038.065c-.843,1.332-14.013,22.385-15.277,36.074a76.386,76.386,0,0,1-1.119-14.277c1.7-5.173,5.806-16.663,10.176-20.961C4684.467,950.256,4690.178,949.9,4690.178,949.9Z" transform="translate(-4641.789 -888.837)" fill="#0b0754"/>
        <g id="Group_700" data-name="Group 700" transform="translate(0 88.278)">
          <path id="Path_493" data-name="Path 493" d="M4602.348,1045.408l-8.707,2.9a.552.552,0,0,1-.7-.349l-5.528-16.6a.551.551,0,0,1,.349-.7l8.708-2.9a.55.55,0,0,1,.7.349l5.529,16.6A.551.551,0,0,1,4602.348,1045.408Z" transform="translate(-4585.642 -1027.73)" fill="#f8f8f8"/>
          <path id="Path_494" data-name="Path 494" d="M4596.84,1047.521l-7.9,2.63a.977.977,0,0,1-1.236-.619l-5.261-15.793a.982.982,0,0,1,.62-1.237l7.9-2.629a.978.978,0,0,1,1.237.619l5.26,15.793A.979.979,0,0,1,4596.84,1047.521Z" transform="translate(-4582.396 -1029.091)" fill="#09f" opacity="0.5"/>
        </g>
        <path id="Path_495" data-name="Path 495" d="M4811.164,1604.069c-2.026,21.624-10.947,35.607-10.947,35.607l-3.046,2.773s-2.778-15.833-4.781-33.958C4794.5,1608.645,4803.809,1608.984,4811.164,1604.069Z" transform="translate(-4718.956 -1314.248)" fill="#777"/>
        <path id="Path_496" data-name="Path 496" d="M4754.358,1610.5a187.575,187.575,0,0,1-11.971,33.577l-6.262-.434a177.124,177.124,0,0,0,2.9-34.351C4741.144,1610.366,4745.531,1611.453,4754.358,1610.5Z" transform="translate(-4682.366 -1317.647)" fill="#777"/>
        <g id="Group_701" data-name="Group 701" transform="translate(35.488 317.192)">
          <path id="Path_497" data-name="Path 497" d="M4712.017,1696.833h-4c-1.339-.21-2.328-.6-3.7-.778a3.709,3.709,0,0,0-3.238.778.467.467,0,0,0-.036.04h-16.985c-.427-.611-.016-2.023.386-3.064a2.412,2.412,0,0,1,1.589-1.453c1.8-.521,5.352-.986,8.6-3.93,1.829-1.652,8.833-6.078,8.833-6.078l.038-.008c.154,0,.885.228,4.072,2.918,1.646,1.387,4.455-1.96,4.455-1.96a4,4,0,0,1,.92,1.248,4.227,4.227,0,0,1,.364,2.607c-.253,1.531.564,4.374,1.217,6.3.4,1.165.731,1.992.731,1.992S4715.457,1696.4,4712.017,1696.833Z" transform="translate(-4683.878 -1682.34)" fill="#0d0d38"/>
          <path id="Path_498" data-name="Path 498" d="M4749.391,1684.546a12.681,12.681,0,0,1-4.306,2.171c-1.8.236-5.179-4.369-5.179-4.369l.038-.008c.154,0,.886.228,4.073,2.918,1.646,1.387,4.453-1.96,4.453-1.96A3.984,3.984,0,0,1,4749.391,1684.546Z" transform="translate(-4720.314 -1682.34)" fill="#0b0754"/>
          <path id="Path_499" data-name="Path 499" d="M4712.017,1717.495h-4c-1.339-.21-2.328-.6-3.7-.778a3.711,3.711,0,0,0-3.238.778.537.537,0,0,0-.036.04h-16.985c-.427-.61-.016-2.023.386-3.064.516-.458.661,1.992.946,2.382s13.854.142,14.638-.427a8.2,8.2,0,0,1,6.411-.784c2.854.681,7.056-1.066,8.1-1.53.4,1.165.731,1.992.731,1.992S4715.457,1717.065,4712.017,1717.495Z" transform="translate(-4683.878 -1703.002)" fill="#0b0754"/>
        </g>
        <g id="Group_702" data-name="Group 702" transform="translate(56.823 317.192)">
          <path id="Path_500" data-name="Path 500" d="M4773.03,1696.833h-4c-1.339-.21-2.328-.6-3.7-.778a3.713,3.713,0,0,0-3.238.778.378.378,0,0,0-.036.04h-16.984c-.426-.611-.018-2.023.384-3.064a2.422,2.422,0,0,1,1.592-1.453c1.8-.521,5.351-.986,8.6-3.93,1.83-1.652,8.833-6.078,8.833-6.078l.037-.008c.154,0,.886.228,4.072,2.918,1.648,1.387,4.455-1.96,4.455-1.96a3.991,3.991,0,0,1,.92,1.248,4.209,4.209,0,0,1,.365,2.607c-.254,1.531.563,4.374,1.217,6.3.4,1.165.729,1.992.729,1.992S4776.469,1696.4,4773.03,1696.833Z" transform="translate(-4744.89 -1682.34)" fill="#0d0d38"/>
          <path id="Path_501" data-name="Path 501" d="M4810.4,1684.546a12.681,12.681,0,0,1-4.306,2.171c-1.8.236-5.177-4.369-5.177-4.369l.036-.008c.154,0,.886.228,4.071,2.918,1.648,1.387,4.454-1.96,4.454-1.96A4,4,0,0,1,4810.4,1684.546Z" transform="translate(-4781.328 -1682.34)" fill="#0b0754"/>
          <path id="Path_502" data-name="Path 502" d="M4773.03,1717.495h-4c-1.339-.21-2.328-.6-3.7-.778a3.714,3.714,0,0,0-3.238.778.422.422,0,0,0-.036.04h-16.984c-.426-.61-.018-2.023.384-3.064.516-.458.662,1.992.947,2.382s13.855.142,14.639-.427a8.2,8.2,0,0,1,6.413-.784c2.852.681,7.055-1.066,8.1-1.53.4,1.165.729,1.992.729,1.992S4776.469,1717.065,4773.03,1717.495Z" transform="translate(-4744.89 -1703.002)" fill="#0b0754"/>
        </g>
        <path id="Path_503" data-name="Path 503" d="M4804.135,1117.065c-4.238-1.416-9.678-5.182-16.213-13.625-17.3-22.354-1.469-48.625.654-49.115s6.115,17,6.115,17C4797.455,1089.407,4803.725,1108.825,4804.135,1117.065Z" transform="translate(-4710.851 -956.741)" fill="#777"/>
        <path id="Path_504" data-name="Path 504" d="M4786.563,943.29s-17.4,11.857-18.71,36.986,21.321,30.241,21.321,30.241l-1.469-7.941s-18.33-6.636-13.544-26.652,21.091-31.558,21.091-31.558Z" transform="translate(-4702.964 -884.541)" fill="#0b0754"/>
        <path id="Path_505" data-name="Path 505" d="M4584.888,1043.312s1.631-3.372,4.622-2.012,1.687,6.473-.054,8.267a17.611,17.611,0,0,0-2.23,2.611Z" transform="translate(-4584.017 -948.067)" fill="#777"/>
      </g>
    </g>
  </g>
</svg>
